<svg viewBox="0 0 400 500" xmlns="http://www.w3.org/2000/svg">
  <!-- Blue outer ring (top) -->
  <g fill="none" stroke="#0891b2" stroke-width="28" stroke-linecap="round">
    <path d="M 200 100 Q 280 100 320 160 Q 340 200 320 240" />
  </g>

  <!-- Blue outer ring (bottom) -->
  <g fill="none" stroke="#0891b2" stroke-width="28" stroke-linecap="round">
    <path d="M 320 240 Q 340 300 280 340 Q 200 380 120 340 Q 80 300 80 240" />
  </g>

  <!-- Purple middle ring (left) -->
  <g fill="none" stroke="#4c1d95" stroke-width="28" stroke-linecap="round">
    <path d="M 120 160 Q 80 140 60 200 Q 50 260 100 300" />
  </g>

  <!-- Purple middle ring (right) -->
  <g fill="none" stroke="#4c1d95" stroke-width="28" stroke-linecap="round">
    <path d="M 300 160 Q 320 140 340 200 Q 350 260 300 300" />
  </g>

  <!-- Pink inner ring -->
  <g fill="none" stroke="#ec4899" stroke-width="28" stroke-linecap="round">
    <path d="M 200 150 Q 260 150 290 200 Q 280 260 220 280 Q 160 260 170 200 Q 180 150 200 150" />
  </g>

  <!-- Text: STICHTING -->
  <text x="200" y="360" font-family="Arial, sans-serif" font-size="36" font-weight="bold" text-anchor="middle" fill="#1e1b4b">
    STICHTING
  </text>

  <!-- Text: KETTING -->
  <text x="200" y="405" font-family="Arial, sans-serif" font-size="36" font-weight="bold" text-anchor="middle" fill="#1e1b4b">
    KETTING
  </text>

  <!-- Text: REACTIE -->
  <text x="200" y="450" font-family="Arial, sans-serif" font-size="36" font-weight="bold" text-anchor="middle" fill="#1e1b4b">
    REACTIE
  </text>
</svg>